<?xml version="1.0" encoding="UTF-8"?>
<svg width="53px" height="55px" viewBox="0 0 53 55" version="1.1" xmlns="http://www.w3.org/2000/svg" xmlns:xlink="http://www.w3.org/1999/xlink">
    <title>猜拳石头剪刀布 布备份</title>
    <g id="Dapp3" stroke="none" stroke-width="1" fill="none" fill-rule="evenodd">
        <g id="DeFi/Game/Patra-PK/Create/join-Game" transform="translate(-651.000000, -1639.000000)" fill-rule="nonzero">
            <g id="猜拳石头剪刀布-布备份" transform="translate(677.500000, 1666.500000) rotate(-270.000000) translate(-677.500000, -1666.500000) translate(650.000000, 1640.000000)">
                <path d="M32.863615,52.792542 C32.9196224,51.6036199 33.1753622,47.0418983 33.1753622,47.0418982 C33.1753621,47.0418982 36.0768345,45.7743187 37.1059708,45.3305835 C38.6531756,44.6634363 39.989735,42.7952184 40.5106863,41.3295537 C41.3932149,38.8473133 40.8945018,30.5540978 41.5805926,29.8568878 C42.8424067,28.5748946 44.3181609,27.566967 45.6845771,26.40749 C47.1378872,25.1742973 53.2674046,20.737151 53.4609596,20.0805053 C53.7296717,19.1687375 53.6942552,17.6884533 53.2330177,16.8847881 C52.7625142,16.0652678 51.3672707,14.2324664 50.7060948,13.7335473 C50.3760217,13.4843967 48.5310716,15.1016108 47.8219189,15.7129564 C46.0943373,17.2023007 44.6237308,18.563981 42.9225056,20.0805053 C41.698167,21.1720322 40.0937193,22.0541489 38.6307315,22.8046894 C37.2134556,23.5315504 45.6153915,9.51178251 46.0121793,8.56727513 C46.4540614,7.51610657 39.4257485,3.59764661 38.8076078,3.81035121 C38.6986816,3.84782674 38.05089,4.25243916 37.69549,4.82363242 C35.8715427,7.75393215 31.824801,17.0738131 31.0997933,18.4752339 C30.6566758,19.331612 29.3647989,21.2093018 28.1620808,21.2366877 C27.9827335,21.2408059 28.1649635,18.3117417 28.1620808,17.2029184 C28.1544621,14.2633528 28.9200341,2.53432934 28.7577773,1.76072695 C28.5619573,0.827132778 20.8230503,0.876756958 20.5899607,1.40635649 C20.4357344,1.75640286 20.0663325,6.35312905 19.862482,8.04570605 C19.5309675,10.7985117 18.8508481,19.1226137 18.1556972,21.0182176 C18.1305762,21.0865796 14.7429513,2.27714822 13.9825271,2.06279633 C12.1089555,1.53484408 7.25937232,4.33315575 5.77599945,5.22906846 C5.51957918,5.38584155 5.4047226,5.69843556 5.49863916,5.98393308 C6.52571631,9.10099281 12.164757,26.2417327 12.886882,29.0215125 C13.3260872,30.7120304 13.8834845,33.1040824 14.5401303,34.6992642 C14.5401303,34.6992642 10.2325012,34.1591633 9.58223866,34.0123497 C6.95359653,33.4187123 1.8231526,32.1538096 1.06231655,35.9108363 C0.816666401,37.123438 1.67366218,41.3046387 1.98437979,41.6878365 C2.59057772,42.4354943 4.28603747,42.0179096 5.11276456,41.9046593 C8.10380761,41.495311 15.8606287,40.7499182 16.0132077,40.7894528 C16.4695034,40.907645 16.618582,42.7062654 16.777956,43.0682546 C17.2694623,44.1849024 18.0813639,45.5918828 19.1819507,46.2252607 C21.0056922,47.2745761 23.9866457,45.4057405 23.9326973,48.2849746 C23.9246669,48.7206793 23.6518366,51.6194749 23.56206,52.1579285 L32.863615,52.792542 Z" id="路径" fill="#ECCDBF"></path>
                <path d="M13.0285478,33.5033411 C12.5926372,32.0998612 12.2098512,30.5094154 11.8904854,29.2803409 C11.1702135,26.5081798 5.54496881,9.41479911 4.52077441,6.30597573 C4.27719465,5.56453648 4.5766808,4.7530229 5.24351717,4.34756942 C6.31960082,3.69771869 9.10761696,2.08791731 11.3477077,1.36476272 C12.5096556,0.989595421 13.5569119,0.873050594 14.2617405,1.07175336 C14.4435587,1.12302483 14.7223603,1.2506888 14.9474195,1.61020702 C15.1074113,1.86594675 15.3516201,2.53515301 15.6088012,3.50313408 C16.3006575,6.10892025 17.3164097,11.1858277 18.085688,15.1734733 C18.400112,12.3938994 18.6657354,9.37155805 18.8403467,7.92257211 C19.003633,6.56665732 19.2731687,3.35014324 19.4533396,1.93822099 C19.5179952,1.43147742 19.6032418,1.09193247 19.6477183,0.991242711 C19.737083,0.788215855 20.0496538,0.388751199 20.7470697,0.232465777 C21.6707803,0.025732505 23.9841748,-0.0632204336 25.9265201,0.0522948825 C27.3652106,0.137953293 28.6095224,0.377632055 29.1012346,0.671053249 C29.5184074,0.919997973 29.7029025,1.25110063 29.7652931,1.54925775 C29.9298148,2.33336156 29.1838043,14.2211413 29.1916289,17.2002416 C29.1928644,17.6810405 29.1757739,18.6416089 29.1588893,19.4691596 C29.6178618,18.9677697 29.9934409,18.3731028 30.1853487,18.0020536 C30.9140628,16.5932201 34.9875727,7.22556807 36.8214037,4.27961921 C37.3394723,3.44712663 38.3138366,2.8913766 38.4727988,2.83681055 C38.6566761,2.77339038 39.1317096,2.74106256 39.7694116,2.9813591 C41.0275194,3.45515714 43.7558217,4.96138597 45.3948623,6.21908186 C46.1340778,6.78739238 46.6632655,7.34087744 46.8732933,7.74157755 C47.1203848,8.21537558 47.0997939,8.63646074 46.9618345,8.96612206 C46.7085656,9.56593677 43.2595796,15.3999739 41.0954696,19.4495982 C40.8957372,19.823736 40.7001231,20.2073456 40.5209817,20.5753061 C41.1345924,20.1898433 41.7214348,19.7712291 42.2382679,19.3120506 C43.9431995,17.791614 45.4175124,16.4264333 47.1492122,14.9331767 C47.766941,14.3998708 49.1918356,13.1833568 49.9166374,12.8499892 C50.5631936,12.552038 51.0697312,12.7175893 51.3271183,12.9115562 C52.0539792,13.4615408 53.6065377,15.4689536 54.1254299,16.3720731 C54.7040359,17.3785593 54.7843406,19.2296868 54.448708,20.3716614 C54.4116443,20.4954131 54.3313395,20.6762018 54.1686709,20.8808759 C54.0224751,21.0629 53.7568517,21.3279057 53.398569,21.6445947 C51.6792237,23.1592658 47.5157314,26.2036394 46.3502829,27.1924174 C45.0509932,28.2962988 43.6446306,29.2570731 42.431823,30.4616444 C42.3988774,30.6815558 42.2773908,31.5078711 42.2423861,32.225672 C42.0920721,35.1506181 42.1188404,39.8807737 41.4805206,41.6742465 C40.8792645,43.3695003 39.3028205,45.5043712 37.5136718,46.2759145 C36.3980679,46.7592446 35.2832717,47.2444369 34.1692879,47.7314896 C34.1103977,48.8223987 33.9924115,51.022337 33.9512296,51.8988942 C33.9242312,52.4667703 33.4422193,52.9053735 32.8743223,52.8788181 C32.3064463,52.8518197 31.867843,52.3698077 31.8943985,51.8019108 C31.9504059,50.6111355 32.1474614,46.9860967 32.1474614,46.9860967 C32.1684053,46.5976197 32.4066217,46.2541578 32.7631311,46.0984204 C32.7631311,46.0984204 35.667898,44.8293995 36.6982698,44.3850465 C38.0035308,43.8222956 39.101029,42.2211424 39.540852,40.9846551 C40.2306492,39.0466338 40.0206214,33.476367 40.2656538,30.9786834 C40.3212494,30.4227274 40.4036133,29.98867 40.4983317,29.717487 C40.5951092,29.4446567 40.7268914,29.2566613 40.846319,29.1347628 C42.1311949,27.8305313 43.6281578,26.8018069 45.0180477,25.6223566 C46.0373003,24.7573303 49.3524451,22.3183309 51.3168228,20.7075 C51.8171832,20.2979458 52.3525482,19.7926436 52.5131577,19.6402705 C52.6737672,18.9550033 52.6614126,17.9561358 52.3401935,17.3972971 C51.9983836,16.8036596 51.1273859,15.6102075 50.4911252,14.9358536 C49.9701739,15.3305823 48.8809121,16.1591626 48.493802,16.4925302 C46.7703385,17.9781681 45.3042621,19.3363479 43.6075668,20.8489599 C42.3206318,21.9962883 40.6383502,22.9317357 39.1006172,23.7205754 C38.5870787,23.9839338 38.2040868,23.8463862 37.9650257,23.6983372 C37.7131983,23.5426695 37.3302064,23.1580303 37.4706367,22.4163439 C37.5779156,21.8509161 38.2880979,20.3333623 39.2795527,18.4789403 C41.1840107,14.9181453 44.103809,9.96025367 44.8821474,8.52362228 C44.7050651,8.34468684 44.4147325,8.06259063 44.1408727,7.85276877 C42.7262737,6.76721327 39.7817662,5.30587274 38.9941619,4.92288088 C38.8489957,5.03921982 38.6735607,5.20044706 38.5693704,5.36764563 C36.7553067,8.28229623 32.7353333,17.5544061 32.0142379,18.9482083 C31.7113448,19.5334034 31.0584055,20.5359773 30.2901567,21.2523369 C29.6359819,21.862447 28.8854413,22.2499689 28.1853486,22.2660299 C27.9147834,22.2720013 27.2807876,22.1739883 27.1111182,21.3664108 C27.004457,20.8594613 27.1352096,18.256146 27.1325327,17.2053893 C27.1255318,14.5495671 27.7836189,4.62204691 27.7708525,2.38298579 C27.3501792,2.29979829 26.5201575,2.15051381 25.8040039,2.10789053 C24.4169968,2.02532075 22.8207855,2.04838266 21.7959733,2.15422018 C21.6981662,2.16430976 21.5956232,2.17831159 21.5006989,2.1931371 C21.4764015,2.3704253 21.4496333,2.57962943 21.4265715,2.7878041 C21.2519601,4.36898404 21.0275186,6.98156521 20.8846173,8.16863409 C20.5471314,10.9712699 19.8299483,19.4425973 19.1222369,21.3725881 C19.0518595,21.5718742 18.9197026,21.7434907 18.7450106,21.862447 C18.506979,22.0286161 18.2485625,22.081329 17.9720259,22.031293 C17.8902797,22.0164674 17.3625334,21.9586069 17.1679488,21.3106093 C17.1580652,21.2774578 17.1113237,21.0647532 17.042138,20.7031759 C16.5850187,18.3140067 14.7027989,8.11406804 13.6186848,4.03149816 C13.5271999,3.69280499 13.4252949,3.3570128 13.3131149,3.02460012 C13.14674,3.03571926 12.962245,3.0688707 12.7647776,3.11067036 C12.2543277,3.21836112 11.6825167,3.41150429 11.0942329,3.6470649 C9.37818219,4.33356753 7.53590888,5.37917655 6.57204601,5.95242894 C7.81450462,9.72510489 13.1792737,26.05209 13.8834846,28.7626841 C14.2308541,30.1000671 14.6507038,31.888392 15.1387096,33.3474676 C15.3736525,33.2072431 15.6308335,33.0400445 15.9069584,32.8594618 C17.2879941,31.95696 19.0831142,30.7768919 20.9146801,30.4321993 C21.4704302,30.3275972 22.3663429,30.5040617 23.3993914,30.9626224 C25.2962308,31.8049987 27.856305,33.5342276 29.3806539,34.6924692 C29.8331529,35.0366047 29.9212588,35.682284 29.5775035,36.1350719 C29.2334308,36.587638 28.5877425,36.6758372 28.1349007,36.3321274 C26.7135067,35.2519256 24.3325738,33.6299756 22.5638102,32.8446363 C22.2302366,32.6965873 21.9226077,32.5796306 21.6524543,32.5106509 C21.5097589,32.4742049 21.3903313,32.4379648 21.2956129,32.4556731 C19.4395437,32.8051016 17.6592491,34.2071402 16.4054655,34.9860963 C15.7605566,35.3867964 15.1908047,35.6316229 14.7598359,35.7051327 C14.6808716,35.7223954 14.6001454,35.7302745 14.5193335,35.7286064 C14.5020371,35.7288123 14.4851525,35.7286064 14.4684738,35.7281945 C13.7722934,35.7063681 10.0313275,35.1691499 9.35553217,35.0165709 C8.11348541,34.7361221 6.28212529,34.2835327 4.6696471,34.3584838 C3.45230948,34.414903 2.34266256,34.7750389 2.07127366,36.1150987 C1.87730682,37.0725784 2.4832988,40.0833888 2.81625465,41.0365444 C2.85393612,41.0491049 2.90417808,41.0641363 2.94062404,41.0703135 C3.09093808,41.0952286 3.25545985,41.0972877 3.4230703,41.0902868 C3.99076309,41.0666072 4.58398869,40.9379137 4.97315783,40.8845831 C7.6825165,40.5137399 14.2773896,39.8690368 15.6812814,39.7728771 C16.0309159,39.7487856 16.2368255,39.7837903 16.2714183,39.7926444 C16.5839891,39.8735669 16.9288877,40.1060388 17.1660956,40.5621286 C17.3392656,40.8952904 17.4799019,41.4353913 17.5810035,41.9423408 C17.6382463,42.2291729 17.7206102,42.6224602 17.7329648,42.6817622 C18.1454018,43.6145327 18.7814566,44.8069553 19.6954893,45.3328485 C20.0865117,45.5577018 20.5580447,45.5616141 21.0170172,45.5591431 C21.7269936,45.5552308 22.4268803,45.5031357 22.9918963,45.605061 C23.6007711,45.7150167 24.0949541,45.9771396 24.4497364,46.4371417 C24.755924,46.8341355 24.9787182,47.4158301 24.9620395,48.3043301 C24.9538031,48.751154 24.9328003,49.1977719 24.9097385,49.6441839 C24.8794698,50.2269081 24.8269628,50.8256933 24.7310089,51.4022402 C24.6282921,51.953917 24.1027757,52.3217842 23.5492623,52.2294758 C22.9957488,52.1371675 22.6180493,51.6186727 22.6999165,51.0635189 C22.7833099,50.5631585 22.8271686,50.0432368 22.8533192,49.5375228 C22.8753515,49.1137608 22.8955306,48.6897929 22.9033552,48.265825 C22.9087088,47.9847584 22.9309471,47.7944979 22.8176968,47.6927785 C22.7231843,47.6081497 22.5806949,47.6192688 22.4309985,47.6075319 C22.1995561,47.5896178 21.9477287,47.596001 21.6866353,47.6034138 C20.6698536,47.6320352 19.5604126,47.6307997 18.6686181,47.1174671 C17.3903312,46.3821638 16.4062891,44.7797752 15.8355077,43.4827506 C15.7679693,43.329142 15.6853996,42.9844493 15.6067421,42.5761305 C15.5690606,42.3801046 15.4941095,42.0860657 15.4329544,41.8568883 C13.4926682,42.0148209 7.72864031,42.5856024 5.25237129,42.9245296 C4.59778464,43.0143062 3.45972221,43.2443073 2.60169681,43.1012 C2.00805937,43.0021575 1.51675903,42.7458001 1.18462686,42.3362458 C1.05758062,42.1795486 0.80060544,41.5784985 0.600255384,40.7392109 C0.224470361,39.164826 -0.135253753,36.6362559 0.0531535405,35.7063681 C0.45467727,33.7244881 1.75973243,32.7832752 3.42512938,32.4402298 C5.4566336,32.0216156 8.11739766,32.6259603 9.80894515,33.0079226 C10.2108807,33.0987287 11.7856774,33.3386134 13.0285478,33.5033411 L13.0285478,33.5033411 Z M16.1089556,25.5156954 C18.3506936,25.3060795 24.7886636,25.1143776 28.4923598,25.5140481 C30.7894875,25.7619633 35.4150411,27.863065 36.0914541,28.102332 C36.6256275,28.2854866 37.2076412,28.0041794 37.3959778,27.471811 C37.5843143,26.9394425 37.3086759,26.3547228 36.7781627,26.1612221 C36.0615973,25.9077473 31.1463288,23.7294295 28.7133008,23.4668948 C24.8860588,23.0538401 18.233737,23.2488365 15.9172538,23.4654534 C15.3512805,23.5186904 14.9354585,24.0204046 14.9881896,24.5864253 C15.0414317,25.152336 15.5429747,25.5681845 16.1089556,25.5156954 L16.1089556,25.5156954 Z" id="形状" fill="#482920"></path>
            </g>
        </g>
    </g>
</svg>