<?xml version="1.0" encoding="UTF-8"?>
<svg width="53px" height="49px" viewBox="0 0 53 49" version="1.1" xmlns="http://www.w3.org/2000/svg" xmlns:xlink="http://www.w3.org/1999/xlink">
    <title>猜拳 石头剪刀布 石头备份 2</title>
    <g id="Dapp3" stroke="none" stroke-width="1" fill="none" fill-rule="evenodd">
        <g id="DeFi/Game/Patra-PK/Create/join-Game" transform="translate(-567.000000, -1642.000000)" fill-rule="nonzero">
            <g id="猜拳-石头剪刀布-石头备份-2" transform="translate(593.500000, 1666.500000) rotate(-270.000000) translate(-593.500000, -1666.500000) translate(569.000000, 1640.000000)">
                <path d="M19.0429465,52.703665 L19.0429465,41.474335 L6.56950658,40.565385 C3.56164158,33.87615 1.62050658,26.728275 1.45317157,18.81845 L5.77889155,16.226595 L5.77889155,3.38541002 L16.3864115,2.14424 L20.1483866,1.20637998 L29.3255966,2.70578001 L29.7651266,6.25338002 L38.7147316,7.38454502 L39.8571666,9.99061 L47.7510665,14.75929 L43.4674866,25.09339 L42.7557615,27.47038 L41.9031616,39.658395 L33.4678116,41.474335 L33.2382466,52.228855 L19.0429465,52.703665 Z" id="路径" fill="#ECCDBF"></path>
                <path d="M16.7401916,1.33671998 C17.3906666,0.828099964 18.1151316,0.361374969 18.8146066,0.184239998 C20.4634566,-0.23323999 25.8784466,0.116129994 28.2860616,0.660274985 C29.2393565,0.875629979 29.8369116,1.24508998 30.0275215,1.47539001 C30.3548416,1.87033001 30.5471665,2.37135502 30.6282616,2.91892999 C30.7076416,3.45621497 30.6716266,4.04617498 30.6696666,4.51143 C30.6694216,4.63123499 30.6723616,4.81057498 30.6779966,5.04087501 C32.7325666,5.127605 34.8015915,5.52499503 36.8395016,5.77318001 C37.2018566,5.81727999 38.0387766,5.83271501 38.6419666,6.01082998 C39.1699416,6.16664998 39.5741916,6.44693001 39.8111065,6.77327002 C39.9389966,6.94967001 40.0737465,7.22872502 40.1435716,7.62366502 C40.1945316,7.91129504 40.2192766,8.31579004 40.2158466,8.81142501 C42.4546566,9.26271499 46.6556715,11.63946 48.1325316,13.12514 C48.9104066,13.907425 49.0431966,14.70147 48.9265765,15.14247 C48.7266566,15.898785 47.3892015,19.92683 46.1605265,22.722035 C45.5664016,24.0737 44.9600265,25.15023 44.5229465,25.59123 C44.4398916,25.67502 44.2931365,25.79507 44.0650416,25.89356 C44.0875816,26.010915 44.0932166,26.133415 44.0794966,26.258365 C43.8482166,28.367325 43.7896616,33.70073 43.5110966,37.109905 C43.4204466,38.219265 43.3023566,39.139975 43.1575616,39.723075 C43.0563765,40.13002 42.9233416,40.427205 42.8013316,40.612425 C42.6834866,40.790785 42.4847916,40.99879 42.1484066,41.148975 C41.9323166,41.24526 41.5665316,41.341545 41.0860866,41.40794 C39.9559016,41.564005 37.9378365,41.634075 36.2541965,41.85678 C35.6054366,41.94253 35.0108216,42.016275 34.6077966,42.165235 C34.5945666,43.42429 34.5308666,49.238385 34.4710866,51.170455 C34.4499005,51.8466371 33.884797,52.3777444 33.2086016,52.35699 C32.5325782,52.3356696 32.001587,51.7707993 32.0220666,51.09475 C32.0838066,49.10094 31.9238216,44.23524 32.1083066,42.17479 C32.1636766,41.556165 32.2788266,41.113695 32.3829516,40.900055 C32.5032466,40.65334 32.6563716,40.494335 32.7933266,40.389475 C33.2916566,40.00654 34.2361316,39.692205 35.3864066,39.507475 C37.0443216,39.24116 39.8057166,39.011595 40.7945366,38.93442 C40.8768566,38.4699 41.0079316,37.658705 41.0691816,36.910475 C41.3394166,33.60469 41.4065466,28.501585 41.6192066,26.23607 L41.4849466,26.243665 C40.0575765,26.3228 38.3807966,26.340195 37.6820565,26.28409 C37.1624115,26.242195 36.8522415,26.071185 36.7532616,25.9994 C36.3896816,25.73529 36.1223866,25.370975 35.9288366,24.94786 C35.72327,24.9668817 35.5168986,24.9758757 35.3104566,24.97481 C34.1895816,24.971625 32.6607816,24.732015 31.3688966,24.253775 C30.7456166,24.02323 30.1779516,23.73266 29.7119615,23.39701 C29.1308215,23.87084 28.4443315,24.22413 27.7005116,24.48383 C26.7236966,24.824625 25.6442266,25.00078 24.6385016,25.12916 C25.4935515,27.58994 25.3524316,29.480605 24.9391166,32.54384 C24.8483361,33.2141496 24.23162,33.6841434 23.5612366,33.59391 C22.8909269,33.5031296 22.4209331,32.8864135 22.5111666,32.21603 C22.9183565,29.19812 23.0722165,27.51644 21.8969516,24.86456 C21.8780866,24.872645 21.8587315,24.880485 21.8393766,24.888325 C19.4268616,25.862935 13.8389016,27.13179 11.5280616,27.53702 C10.8617179,27.6536722 10.226885,27.2083352 10.1097565,26.542075 C9.99311185,25.8757856 10.438476,25.2410238 11.1047016,25.124015 C13.0402016,24.784445 17.3784166,23.818655 19.9795816,22.957235 C20.5678266,22.76246 21.2232016,22.465275 21.4623216,22.3538 C21.5519916,22.0745 21.5865366,21.64624 21.6174066,21.143745 C21.6904166,19.950595 21.6093216,18.410035 21.3755916,17.040485 C21.2526016,16.31994 21.0891866,15.648395 20.8760366,15.11209 C20.7564766,14.810985 20.6768516,14.54516 20.5065765,14.442015 C20.1072266,14.20069 19.6456465,14.16884 19.1801466,14.1757 C18.5046816,14.185745 17.8150066,14.296975 17.1772716,14.341565 C13.2376716,14.61719 9.94021657,15.72704 6.34018654,17.31758 L6.29829158,17.3362 L6.26276655,17.352125 C5.24013654,17.814685 3.67042154,18.723145 2.56106154,19.46329 C2.55199656,19.931485 2.53729653,21.617575 2.73770659,23.12849 C3.27131657,27.14943 4.59235657,32.92359 6.00894657,36.724765 C6.49600659,38.03135 6.96591655,39.09269 7.43631654,39.692205 C7.77956155,39.739735 8.76544156,39.86787 9.63249654,39.912705 C12.4629816,40.059215 16.5968665,40.0526 18.3260766,40.15256 C19.0620566,40.194945 19.5273116,40.339985 19.6529966,40.412015 C19.8323366,40.51516 20.0258866,40.679555 20.1770516,40.95224 C20.3005315,41.1747 20.4372416,41.652695 20.4835466,42.33208 C20.6288316,44.470685 20.2603516,49.59584 20.2679466,51.61317 C20.2701162,52.2895544 19.7239829,52.8398542 19.0476015,52.8428315 C18.3712172,52.8449947 17.8209174,52.2988613 17.8179466,51.62248 C17.8110866,49.793555 17.9326066,44.336915 17.9730315,42.58492 C16.1874715,42.494515 12.2346415,42.50064 9.50583154,42.35952 C8.15171654,42.28945 7.06734652,42.167195 6.57367155,42.011375 C6.20004653,41.89353 5.96484653,41.71664 5.83083154,41.577235 C5.07329156,40.787355 4.21652653,39.051775 3.44012155,36.821785 C1.77069157,32.02591 0.290891576,24.85623 0.0738215395,21.10577 C0.0101215185,20.00229 0.0672065395,19.151895 0.209796585,18.65773 C0.361941585,18.130245 0.63683158,17.810765 0.89653157,17.63167 C1.89392659,16.94322 3.36441655,16.066855 4.53404658,15.46881 C4.4531966,12.545715 4.26062656,7.110145 4.37920654,4.60550998 C4.42771655,3.58067495 4.62739152,2.90447498 4.75920154,2.70626999 C4.91918656,2.466415 5.20681653,2.19838497 5.66031157,1.991115 C6.17285159,1.75689501 7.0291266,1.54791 8.05273655,1.39307001 C10.7989416,0.978285011 14.8593265,0.870730021 15.7775866,0.942515019 C16.2171166,0.976570021 16.4653016,1.12430504 16.5444366,1.17771501 C16.6083815,1.22083499 16.6745315,1.27326502 16.7401916,1.33671998 Z M40.0531665,11.28568 C39.6846866,14.880565 38.7781865,20.04737 38.2379616,22.44102 C38.1643152,22.7720038 38.0783421,23.1001238 37.9802216,23.424695 C38.0022716,23.49354 38.0243216,23.56312 38.0471066,23.6327 C38.0645016,23.686355 38.0924316,23.756425 38.1210966,23.822575 L42.9713616,23.630985 C43.2489465,23.226245 43.5662216,22.53608 43.9177966,21.736155 C44.9387116,19.413555 46.0419466,16.19891 46.4339466,14.93667 C46.1027066,14.63826 45.3120915,13.94883 44.5788066,13.47941 C43.1291415,12.551595 41.3109966,11.61545 40.0531665,11.28568 L40.0531665,11.28568 Z M23.8701816,22.756335 C24.6617765,22.66495 25.5256465,22.55519 26.3429665,22.33812 C27.1090815,22.13477 27.8413865,21.84763 28.3625015,21.31941 C28.3938616,21.08813 28.4705466,20.48151 28.4952916,19.92438 C28.6866366,15.641045 28.2145216,5.91650499 28.2199116,4.50212001 C28.2208916,4.188275 28.2502916,3.80435999 28.2216265,3.433185 C28.2145216,3.34326999 28.2174615,3.25017002 28.1998215,3.168585 C26.5521966,2.62223499 20.9960865,2.15918499 19.4160815,2.55927001 C18.7237116,2.73468999 18.0428565,3.380265 17.4891566,3.89672498 C17.6503666,6.07599998 17.5680466,9.62776495 17.5876465,11.845995 C18.0967565,11.79479 18.6242415,11.73354 19.1436416,11.725945 C20.0739066,11.71198 20.9772216,11.86339 21.7746966,12.345795 C22.2112866,12.61015 22.6351366,13.094025 22.9676016,13.7837 C23.3213816,14.51723 23.6023965,15.525405 23.7905565,16.628395 C24.1021965,18.454625 24.1693265,20.54717 24.0041965,21.964495 C23.9738383,22.2306654 23.9291013,22.4949984 23.8701816,22.756335 L23.8701816,22.756335 Z M30.7566416,7.496755 C30.8808566,11.123245 31.0800416,16.965515 30.9428416,20.03365 C30.9273458,20.4112452 30.9007108,20.788301 30.8629715,21.164325 L30.8634616,21.16506 C31.3833516,21.763595 32.4713965,22.10439 33.5097066,22.319745 C34.2572016,22.475075 35.2222566,22.48169 35.7012315,22.473115 L35.7029466,22.47091 C35.7850216,22.14996 35.8987016,21.68397 35.9984166,21.207935 C36.5214915,18.710405 37.2680066,14.355285 37.6009616,11.189395 C37.7175816,10.07979 37.7310565,8.90084999 37.7298316,8.34788499 L36.5432965,8.20529499 C34.6288665,7.972055 32.6869966,7.59402 30.7566416,7.496755 L30.7566416,7.496755 Z M15.1293166,12.09075 C15.0462616,9.59665001 14.9311116,4.862025 14.8955866,3.36899222 C13.3540465,3.36826002 10.1793366,3.51281001 8.07184657,3.87124498 C7.64824155,3.94327499 7.16485658,4.079495 6.87943158,4.16573501 C6.8495416,4.55259003 6.80372657,5.23271001 6.79588655,5.85378502 C6.76550655,8.24229 6.87845157,11.85604 6.95366655,14.39326 C9.64989156,13.29125 12.2557115,12.48324 15.1293166,12.09075 Z" id="形状" fill="#482920"></path>
            </g>
        </g>
    </g>
</svg>