<?xml version="1.0" encoding="UTF-8"?>
<svg width="64px" height="40px" viewBox="0 0 64 40" version="1.1" xmlns="http://www.w3.org/2000/svg" xmlns:xlink="http://www.w3.org/1999/xlink">
    <title>猜拳石头剪刀布剪刀</title>
    <g id="Dapp3" stroke="none" stroke-width="1" fill="none" fill-rule="evenodd">
        <g id="DeFi/Game/Patra-PK/Create/join-Game" transform="translate(-741.000000, -1754.000000)" fill-rule="nonzero">
            <g id="猜拳石头剪刀布剪刀" transform="translate(773.000000, 1774.000000) rotate(-270.000000) translate(-773.000000, -1774.000000) translate(753.000000, 1742.000000)">
                <path d="M17.0887167,62.7259065 L17.0887167,55.0859911 C17.0887167,55.0859911 12.1349527,53.5829125 9.56767351,52.804593 C8.62097368,52.5175136 7.87948074,51.7777155 7.59023579,50.8316751 C6.376654,46.8232394 5.40714451,42.579997 5.12239351,37.6775334 C5.07963175,36.9052861 5.48154156,36.1764078 6.15744093,35.8004365 C6.73824262,35.4756847 7.3326039,35.1450571 7.3326039,35.1450572 L6.88739795,27.3336131 C6.88739795,27.3336131 2.65455123,10.9613328 1.26243509,5.57524444 C0.993503584,4.53612917 1.48842796,3.45045933 2.45115766,2.97248438 C4.18904291,2.09969985 5.97664665,1.51663825 7.87272688,1.53788158 C9.16314627,1.54081951 10.2795511,2.44411305 10.5484826,3.70696122 C11.7055662,9.04423515 14.9417843,24.1726507 14.9417843,24.1726507 C14.9417843,24.1726507 19.1814107,7.53256876 20.5260684,2.25337501 C20.6303199,1.84651042 20.9010141,1.50231864 21.2718449,1.30510891 C21.6414744,1.10771897 22.0772588,1.07554807 22.4718671,1.21651971 L28.7815884,3.46650482 C29.4284394,3.69727052 29.7754889,4.39967055 29.5657837,5.05365285 C28.0923101,9.63859644 22.8018168,26.0942682 22.8018168,26.0942682 C25.5272909,25.90805 28.09457,25.8707612 29.2810327,27.1591466 C30.3318996,26.2556271 32.7771426,26.0418378 36.4359673,26.4298676 C37.3281598,26.5217366 38.0266614,27.2390807 38.0947551,28.133402 C38.3591668,31.816634 37.5433324,35.7446163 36.0585592,39.8249177 C36.3297507,43.7671376 36.3229709,47.4566973 35.8303064,50.709187 C35.7643903,51.1244129 35.5028735,51.4826321 35.1274685,51.6719166 C33.3782836,52.5557748 28.3680214,55.0859911 28.3680214,55.0859911 L28.3680214,62.7259065 L17.0887167,62.7259065 Z" id="路径"></path>
                <path d="M7.77283807,36.1934381 C7.57396431,36.3034966 7.13779807,36.546891 6.70615164,36.7880254 C6.40886492,36.9525704 6.2322619,37.2730038 6.25190592,37.6122214 C6.52987719,42.4170561 7.48356711,46.5757771 8.67002977,50.5012735 C8.85012507,51.0866893 9.30906463,51.5445281 9.89491123,51.7232171 L17.4182143,54.0046152 C17.8947432,54.1488594 18.2206235,54.5881094 18.220489,55.0859911 L18.220489,62.2718868 C18.220489,62.8956272 17.7142649,63.4018512 17.0905246,63.4018512 C16.4667843,63.4018512 15.9605602,62.8956272 15.9605602,62.2718868 L15.9605602,55.9239727 L9.23953184,53.8859689 C7.93191754,53.4888661 6.90815678,52.4662918 6.50953786,51.1591388 C5.27109687,47.0709275 4.28576787,42.7429379 3.99423707,37.7403594 C3.92679211,36.5370325 4.55252865,35.4008775 5.6055663,34.8146555 L6.16376875,34.5027853 L5.76602125,27.5087577 L0.168177569,5.8581875 C-0.23408976,4.30200053 0.507166882,2.67665968 1.94448163,1.96252222 C3.84734172,1.00702429 5.80895993,0.384639945 7.87453482,0.407917138 C9.69703134,0.411901002 11.2702449,1.68580878 11.6531358,3.4676348 C12.3943925,6.88509915 13.9876423,14.3159712 15.0385092,19.2218246 L19.4318109,1.97449979 C19.6144455,1.25977154 20.0893535,0.654858482 20.7403097,0.307802276 C21.3913633,-0.0391637093 22.1585151,-0.0956129491 22.8533431,0.152319181 C24.6432068,0.790523094 27.5517351,1.82850838 29.1608044,2.40230435 C30.3834259,2.83779264 31.0365453,4.16459685 30.6410579,5.39942196 L24.378795,24.8822684 C25.5155392,24.8492734 26.5822256,24.8852063 27.492977,25.0657746 C28.2116343,25.2086021 28.8444144,25.4434087 29.3709779,25.7778781 C29.8207037,25.5643149 30.3653466,25.3966281 31.0094262,25.2865696 C32.3676434,25.0540229 34.2298248,25.0594468 36.5530316,25.305779 C37.9880865,25.4549344 39.1112711,26.607724 39.2220076,28.0529485 C39.4909391,31.814826 38.6931842,35.8246178 37.2016312,39.9860507 C37.463783,43.9280446 37.4411837,47.6180564 36.9462593,50.8859134 C36.8237183,51.6595872 36.3368985,52.3272618 35.6377605,52.6805229 L29.4975338,55.7811452 L29.4975338,62.2718868 C29.4975338,62.8956272 28.9913098,63.4018512 28.3675695,63.4018512 C27.7438291,63.4018512 27.237605,62.8956272 27.237605,62.2718868 L27.237605,55.0859911 C27.2373668,54.6593161 27.4778631,54.2690125 27.8590854,54.0773849 C27.8590854,54.0773849 32.8693476,51.5473946 34.6185325,50.6633104 C34.6669561,50.6383524 34.7017475,50.5931236 34.7134496,50.5399183 C35.1948144,47.3613284 35.1970743,43.755386 34.9326626,39.9024333 C34.921363,39.7449163 34.9439623,39.5867212 34.9982006,39.4382439 C36.4242157,35.5202053 37.2219706,31.75087 36.9688586,28.2208612 C36.9415652,27.870407 36.6676604,27.5895596 36.3179991,27.5535042 C34.2501642,27.3345171 32.5981562,27.307624 31.3913542,27.5141815 C31.047845,27.5727136 30.7495344,27.6436754 30.5009422,27.7406263 C30.9099894,31.2019333 30.7224153,36.195698 30.4082852,41.4850615 C30.3827828,41.9227715 30.1060817,42.3060994 29.6986675,42.4681305 C25.7686513,44.0299673 23.3234083,43.9336944 21.427328,43.3065641 C20.8058476,43.5054378 20.1775874,43.7162892 19.5402875,43.9402481 C19.9515945,43.9994583 20.3403023,44.07155 20.7064107,44.1553933 C20.9875719,44.220296 21.233325,44.3901406 21.3934291,44.6302044 C22.697408,46.5857209 23.7663543,48.7265514 24.4782319,51.1503251 C24.6520075,51.7489626 24.3097279,52.3755664 23.7121161,52.5528369 C23.1131441,52.7282774 22.4852237,52.3856007 22.3087003,51.786947 C21.7098191,49.7491692 20.8307068,47.9335424 19.7640204,46.2670708 C18.2385684,45.9787039 16.3311885,45.9158779 14.0057217,46.0822087 C13.4578383,46.1215556 12.9610255,45.7611995 12.8282989,45.2281816 C12.6947942,44.6957227 12.9637654,44.1444271 13.4655988,43.9219427 C15.9532706,42.8185453 18.5012511,41.8564695 21.0973784,41.0403074 L21.0973784,41.0400815 L21.110938,41.0360136 L21.1222376,41.0321717 C21.6736603,40.8595132 22.2183031,40.6956683 22.7584261,40.5397333 C23.0770761,37.4504106 23.1493938,35.1617806 22.6386499,33.5095466 C17.8498607,33.847406 12.9119162,34.6847096 7.77283807,36.1934381 Z M28.220674,27.7202869 C27.7890276,27.4043489 27.1811068,27.2748549 26.4918285,27.1964354 C25.4228822,27.0753032 24.1731415,27.1333834 22.887242,27.2210687 C22.8736824,27.2221987 22.8601229,27.2228766 22.8443034,27.2233286 L22.8375236,27.2235546 L22.8284839,27.2237806 L22.823964,27.2240066 L22.8104044,27.2242326 L22.792325,27.2242326 C22.1618049,27.2194867 21.6578407,27.2368882 21.269133,27.2784709 C21.1855157,28.3462872 21.2103749,29.7657486 21.3030319,31.3474728 C21.9765338,31.2890509 22.6508101,31.2399304 23.3256682,31.2001254 C23.7865995,31.1727435 24.2178499,31.4284517 24.4149539,31.846013 C25.3776836,33.8883107 25.4228822,36.9631699 24.9369975,41.4247213 C25.8545286,41.3325163 26.921215,41.0827941 28.1958148,40.6217686 C28.4828258,35.6047267 28.6500605,30.9205721 28.220674,27.7202869 L28.220674,27.7202869 Z M21.9742308,24.9765074 L28.4896056,4.70788374 C28.5124031,4.63475211 28.4735468,4.55664098 28.4014684,4.53070528 C26.7923991,3.95713536 23.8838706,2.91915001 22.094007,2.28094616 C21.9981396,2.24675236 21.8923003,2.25454673 21.8024762,2.30241547 C21.7120791,2.35009997 21.6465411,2.43371731 21.6216819,2.53225028 C20.2770243,7.81144403 16.0373978,24.4517519 16.0373978,24.4517519 C15.9081143,24.960254 15.4455714,25.3126855 14.9209929,25.3023891 C14.3963647,25.2926507 13.947713,24.9224896 13.838487,24.4092652 C13.838487,24.4092652 10.6022689,9.28288362 9.44518539,3.94334978 C9.28356236,3.19801693 8.62362987,2.6665877 7.86097529,2.66761997 C6.14568934,2.64863655 4.52984023,3.19260146 2.95466977,3.98402856 C2.4713088,4.22415018 2.22235827,4.77014395 2.35804857,5.2925273 C3.74790481,10.6786156 7.98075146,27.0506701 7.98075153,27.0506701 C7.99883094,27.1223098 8.01013062,27.1955315 8.01465044,27.2692052 L8.38075888,33.6713575 C11.8809155,32.7061654 15.4489316,32.0065381 19.0544027,31.5784375 C18.9233269,29.3596394 18.9233269,27.4210724 19.1199407,26.1937051 C19.1738208,25.8511386 19.3821346,25.5523333 19.6849229,25.3832946 C20.0284321,25.1921046 20.7742086,25.023062 21.9742308,24.9765074 L21.9742308,24.9765074 Z" id="形状" fill="#482920"></path>
            </g>
        </g>
    </g>
</svg>