<?xml version="1.0" encoding="UTF-8"?>
<svg width="13px" height="11px" viewBox="0 0 13 11" version="1.1" xmlns="http://www.w3.org/2000/svg" xmlns:xlink="http://www.w3.org/1999/xlink">
    <title>top arrow</title>
    <defs>
        <filter id="filter-1">
            <feColorMatrix in="SourceGraphic" type="matrix" values="0 0 0 0 0.670588 0 0 0 0 0.705882 0 0 0 0 0.815686 0 0 0 1.000000 0"></feColorMatrix>
        </filter>
    </defs>
    <g id="Dapp2" stroke="none" stroke-width="1" fill="none" fill-rule="evenodd">
        <g id="top-arrow" transform="translate(-199.000000, -457.000000)" filter="url(#filter-1)">
            <g transform="translate(205.500000, 462.500000) rotate(-270.000000) translate(-205.500000, -462.500000) translate(200.000000, 456.000000)">
                <path d="M4.43359375,11.40625 L4.43359375,2.13378906 L1.08105469,5.48632812 C0.836914063,5.73046875 0.441210938,5.73046875 0.197070313,5.48632812 C-0.0470703125,5.2421875 -0.0470703125,4.84648438 0.197070313,4.60253906 L4.61640625,0.183203125 C4.86054688,-0.0609375 5.25625,-0.0609375 5.50039062,0.183203125 L9.91992188,4.60253906 C10.0419922,4.72460937 10.1029297,4.88457031 10.1029297,5.04453125 C10.1029297,5.20449219 10.0419922,5.36445312 9.91992188,5.48652344 C9.67578125,5.73066406 9.28007813,5.73066406 9.0359375,5.48652344 L5.68359375,2.13378906 L5.68359375,11.40625 C5.68359375,11.7513672 5.40371094,12.03125 5.05859375,12.03125 C4.71347656,12.03125 4.43359375,11.7513672 4.43359375,11.40625 Z" id="路径" fill="#000000" fill-rule="nonzero"></path>
            </g>
        </g>
    </g>
</svg>