<?xml version="1.0" encoding="UTF-8"?>
<svg width="21px" height="21px" viewBox="0 0 21 21" version="1.1" xmlns="http://www.w3.org/2000/svg" xmlns:xlink="http://www.w3.org/1999/xlink">
    <title>添加</title>
    <defs>
        <filter id="filter-1">
            <feColorMatrix in="SourceGraphic" type="matrix" values="0 0 0 0 1.000000 0 0 0 0 1.000000 0 0 0 0 1.000000 0 0 0 1.000000 0"></feColorMatrix>
        </filter>
        <filter id="filter-2">
            <feColorMatrix in="SourceGraphic" type="matrix" values="0 0 0 0 0.000000 0 0 0 0 0.345098 0 0 0 0 0.980392 0 0 0 1.000000 0"></feColorMatrix>
        </filter>
    </defs>
    <g id="Dapp4—Patrac-Maker" stroke="none" stroke-width="1" fill="none" fill-rule="evenodd">
        <g id="DeFi/Patra-Maker" transform="translate(-1028.000000, -362.000000)">
            <g id="编组-16" transform="translate(984.000000, 352.000000)" filter="url(#filter-1)">
                <g transform="translate(45.000000, 9.000000)" filter="url(#filter-2)" id="添加">
                    <g transform="translate(0.000000, 2.000000)">
                        <path d="M9.47265787,-0.114902413 C12.121109,-0.114902413 14.518825,0.958721871 16.2544286,2.69453979 C17.9900293,4.43035479 19.0635195,6.8283617 19.0635195,9.47712789 C19.0635195,12.1259144 17.9900125,14.5240175 16.2543874,16.2599146 C14.5187867,17.9957873 12.1210875,19.0694728 9.47265787,19.0694728 C6.82424822,19.0694728 4.42655813,17.9957852 2.69096252,16.2599094 C0.955346098,14.5240128 -0.118158808,12.1259118 -0.118158808,9.47712789 C-0.118158808,6.82836431 0.95532924,4.43035952 2.69092129,2.69454494 C4.4265198,0.958723912 6.82422676,-0.114902413 9.47265787,-0.114902413 Z M9.47265787,1.31843144 C7.21998511,1.31843144 5.18059791,2.23161443 3.70437671,3.70803592 C2.22814349,5.18446942 1.31508514,7.22414984 1.31508514,9.47712789 C1.31508514,11.7301093 2.22814613,13.7698035 3.70438305,15.2462487 C5.18060369,16.7226776 7.21998824,17.6358693 9.47265787,17.6358693 C11.7253275,17.6358693 13.7647121,16.7226776 15.2409327,15.2462487 C16.7171696,13.7698035 17.6302306,11.7301093 17.6302306,9.47712789 C17.6302306,7.22414983 16.7171722,5.18446941 15.240939,3.70803592 C13.7647178,2.23161443 11.7253306,1.31843144 9.47265787,1.31843144 Z M9.97942286,5.42032264 C10.0831776,5.52404588 10.155262,5.65942689 10.1799456,5.81072985 L10.1893248,5.92694656 L10.1893248,8.76055086 L13.0223447,8.76055086 C13.22024,8.76055086 13.3993819,8.84076347 13.5290566,8.97042832 C13.6587558,9.10011774 13.7389667,9.2792777 13.7389667,9.47712789 C13.7389667,9.6750811 13.6587662,9.85427511 13.5290981,9.9839826 C13.425354,10.0877581 13.2899441,10.1598589 13.1385972,10.1845482 L13.0223447,10.1939297 L10.1893248,10.1939297 L10.1893248,13.0273991 C10.1893248,13.2252221 10.1091048,13.4043847 9.97939776,13.5340818 C9.84971536,13.6637544 9.67057082,13.7439761 9.47270281,13.7439761 C9.27483468,13.7439761 9.09570369,13.6637552 8.96603306,13.5340846 C8.86227583,13.4303273 8.79018951,13.2949113 8.76550527,13.1436085 L8.75612578,13.0273991 L8.75612578,10.1939297 L5.92301594,10.1939297 C5.72512143,10.1939297 5.54595661,10.1136992 5.41626841,9.98397155 C5.28660079,9.85426452 5.20639396,9.6750746 5.20639396,9.47712789 C5.20639396,9.27929071 5.28661738,9.10013891 5.41631574,8.97045041 C5.52006857,8.86670545 5.65547857,8.79461672 5.8067936,8.76993102 L5.92301594,8.76055086 L8.75612578,8.76055086 L8.75612578,5.92694656 C8.75612578,5.72912723 8.83634038,5.55000849 8.96603064,5.42034779 C9.70848482,5.18351653 9.8576882,5.29862498 9.97942286,5.42032264 Z" id="形状" stroke="#0058FA" stroke-width="0.25" fill="#0058FA" fill-rule="nonzero"></path>
                    </g>
                </g>
            </g>
        </g>
    </g>
</svg>